<?xml version="1.0" encoding="UTF-8" standalone="no"?>
<svg width="777px" height="84px" viewBox="0 0 777 84" version="1.1" xmlns="http://www.w3.org/2000/svg" xmlns:xlink="http://www.w3.org/1999/xlink" xmlns:sketch="http://www.bohemiancoding.com/sketch/ns">
    <!-- Generator: Sketch 3.3 (11970) - http://www.bohemiancoding.com/sketch -->
    <title>banner-light-background</title>
    <desc>Created with Sketch.</desc>
    <defs></defs>
    <g id="Page-1" stroke="none" stroke-width="1" fill="none" fill-rule="evenodd" sketch:type="MSPage">
        <g id="Banner-(Light-Background)" sketch:type="MSLayerGroup">
            <g id="IO" transform="translate(646.000000, 0.000000)" fill="#343433" sketch:type="MSShapeGroup">
                <path d="M59.436,41.391 C59.436,50.209 62.401,57.46 68.333,63.151 C74.228,68.835 81.042,71.677 88.766,71.677 C97.139,71.677 104.207,68.776 109.972,62.991 C115.728,57.132 118.605,50.006 118.605,41.596 C118.605,33.084 115.765,25.958 110.073,20.201 C104.418,14.415 97.415,11.522 89.071,11.522 C80.765,11.522 73.748,14.415 68.026,20.201 C62.3,25.921 59.436,32.983 59.436,41.391 L59.436,41.391 Z M47.288,41.26 C47.288,30.024 51.405,20.361 59.646,12.302 C67.852,4.228 77.712,0.191 89.231,0.191 C100.607,0.191 110.364,4.264 118.504,12.404 C126.673,20.536 130.761,30.315 130.761,41.727 C130.761,53.212 126.658,62.946 118.453,70.947 C110.211,78.978 100.265,83 88.605,83 C78.302,83 69.04,79.43 60.835,72.288 C51.799,64.397 47.288,54.057 47.288,41.26 L47.288,41.26 Z" id="Fill-19"></path>
                <path d="M0.789,1.692 L35.957,1.692 L35.957,10.043 L0.789,10.043 L0.789,1.692 Z" id="Fill-16"></path>
                <path d="M12.347,5.467 L24.398,5.467 L24.398,78.855 L12.347,78.855 L12.347,5.467 Z" id="Fill-15"></path>
                <path d="M0.789,73.199 L35.957,73.199 L35.957,81.551 L0.789,81.551 L0.789,73.199 Z" id="Fill-17"></path>
            </g>
            <g id="Prediction" transform="translate(133.000000, 2.000000)" fill="#36A0CE" sketch:type="MSShapeGroup">
                <path d="M451.034,23.28 L458.276,23.28 L458.276,33.365 C461.17,29.504 464.376,26.61 467.896,24.701 C471.415,22.792 475.241,21.83 479.38,21.83 C483.585,21.83 487.315,22.901 490.573,25.037 C493.83,27.179 496.234,30.05 497.787,33.679 C499.339,37.292 500.119,42.933 500.119,50.585 L500.119,79.551 L492.875,79.551 L492.875,52.712 C492.875,46.227 492.606,41.898 492.067,39.727 C491.229,36.003 489.618,33.198 487.243,31.318 C484.867,29.445 481.763,28.504 477.931,28.504 C473.551,28.504 469.63,29.947 466.161,32.849 C462.7,35.748 460.412,39.333 459.312,43.604 C458.619,46.401 458.276,51.503 458.276,58.913 L458.276,79.551 L451.034,79.551 L451.034,23.28" id="Fill-14"></path>
                <path d="M407.96,28.914 C401.94,28.914 396.768,31.143 392.439,35.587 C388.117,40.034 385.953,45.411 385.953,51.722 C385.953,55.795 386.937,59.592 388.911,63.104 C390.88,66.615 393.546,69.334 396.905,71.251 C400.258,73.16 403.944,74.122 407.96,74.122 C411.975,74.122 415.655,73.16 419.015,71.251 C422.373,69.334 425.033,66.615 427.009,63.104 C428.976,59.592 429.967,55.795 429.967,51.722 C429.967,45.411 427.796,40.034 423.452,35.587 C419.108,31.143 413.942,28.914 407.96,28.914 L407.96,28.914 Z M407.982,21.83 C416.653,21.83 423.839,24.971 429.536,31.246 C434.719,36.973 437.312,43.743 437.312,51.576 C437.312,59.432 434.571,66.303 429.1,72.184 C423.619,78.057 416.588,81 407.982,81 C399.347,81 392.292,78.057 386.82,72.184 C381.348,66.303 378.608,59.432 378.608,51.576 C378.608,43.778 381.194,37.017 386.384,31.296 C392.081,24.985 399.28,21.83 407.982,21.83 L407.982,21.83 Z" id="Fill-12"></path>
                <path d="M358.518,23.28 L365.761,23.28 L365.761,79.551 L358.518,79.551 L358.518,23.28 Z M362.11,0.115 C363.765,0.115 365.17,0.698 366.336,1.864 C367.502,3.044 368.085,4.457 368.085,6.104 C368.085,7.729 367.502,9.121 366.336,10.302 C365.17,11.468 363.765,12.058 362.11,12.058 C360.499,12.058 359.107,11.468 357.941,10.302 C356.775,9.121 356.193,7.729 356.193,6.104 C356.193,4.457 356.775,3.044 357.941,1.864 C359.107,0.698 360.499,0.115 362.11,0.115 L362.11,0.115 Z" id="Fill-10"></path>
                <path d="M329.617,2.388 L336.86,2.388 L336.86,23.28 L348.338,23.28 L348.338,29.539 L336.86,29.539 L336.86,79.551 L329.617,79.551 L329.617,29.539 L319.743,29.539 L319.743,23.28 L329.617,23.28 L329.617,2.388" id="Fill-9"></path>
                <path d="M310.867,34.968 L305.125,38.532 C300.171,31.952 293.4,28.658 284.823,28.658 C277.974,28.658 272.283,30.866 267.758,35.267 C263.225,39.684 260.958,45.031 260.958,51.343 C260.958,55.438 262.001,59.293 264.085,62.914 C266.169,66.528 269.025,69.334 272.662,71.331 C276.298,73.328 280.364,74.325 284.882,74.325 C293.146,74.325 299.893,71.033 305.125,64.444 L310.867,68.22 C308.179,72.271 304.571,75.419 300.032,77.648 C295.499,79.879 290.332,81 284.547,81 C275.649,81 268.268,78.174 262.409,72.518 C256.55,66.864 253.613,59.985 253.613,51.882 C253.613,46.432 254.991,41.374 257.73,36.696 C260.47,32.033 264.23,28.389 269.025,25.766 C273.82,23.142 279.184,21.83 285.115,21.83 C288.832,21.83 292.431,22.398 295.9,23.536 C299.361,24.672 302.298,26.159 304.717,27.988 C307.122,29.816 309.177,32.141 310.867,34.968" id="Fill-7"></path>
                <path d="M233.472,23.28 L240.715,23.28 L240.715,79.551 L233.472,79.551 L233.472,23.28 Z M237.064,0.115 C238.711,0.115 240.125,0.698 241.291,1.864 C242.457,3.044 243.04,4.457 243.04,6.104 C243.04,7.729 242.457,9.121 241.291,10.302 C240.125,11.468 238.711,12.058 237.064,12.058 C235.454,12.058 234.063,11.468 232.896,10.302 C231.73,9.121 231.147,7.729 231.147,6.104 C231.147,4.457 231.73,3.044 232.896,1.864 C234.063,0.698 235.454,0.115 237.064,0.115 L237.064,0.115 Z" id="Fill-6"></path>
                <path d="M188.154,28.812 C184.131,28.812 180.408,29.803 176.998,31.784 C173.595,33.767 170.876,36.55 168.857,40.128 C166.847,43.706 165.841,47.494 165.841,51.488 C165.841,55.452 166.861,59.241 168.887,62.856 C170.92,66.471 173.653,69.291 177.078,71.309 C180.502,73.32 184.175,74.325 188.11,74.325 C192.067,74.325 195.82,73.328 199.369,71.331 C202.917,69.334 205.643,66.631 207.552,63.221 C209.468,59.81 210.423,55.97 210.423,51.699 C210.423,45.192 208.281,39.749 203.996,35.377 C199.704,30.997 194.421,28.812 188.154,28.812 L188.154,28.812 Z M217.098,1.558 L217.098,79.551 L209.957,79.551 L209.957,69.881 C206.925,73.568 203.515,76.345 199.74,78.202 C195.966,80.067 191.841,81 187.353,81 C179.395,81 172.589,78.114 166.949,72.337 C161.315,66.558 158.496,59.532 158.496,51.255 C158.496,43.159 161.338,36.23 167.029,30.472 C172.72,24.716 179.563,21.83 187.563,21.83 C192.184,21.83 196.359,22.814 200.104,24.782 C203.85,26.742 207.129,29.693 209.957,33.62 L209.957,1.558 L217.098,1.558 L217.098,1.558 Z" id="Fill-5"></path>
                <path d="M139.761,45.731 C138.792,41.87 137.393,38.78 135.542,36.47 C133.69,34.16 131.25,32.295 128.21,30.881 C125.179,29.467 121.98,28.767 118.636,28.767 C113.112,28.767 108.361,30.538 104.397,34.087 C101.497,36.673 99.296,40.558 97.816,45.731 L139.761,45.731 L139.761,45.731 Z M139.761,60.881 L145.86,64.088 C143.864,68.015 141.546,71.192 138.923,73.603 C136.299,76.017 133.355,77.852 130.076,79.106 C126.797,80.374 123.081,81 118.942,81 C109.76,81 102.59,77.991 97.409,71.972 C92.228,65.96 89.648,59.154 89.648,51.576 C89.648,44.435 91.834,38.073 96.221,32.484 C101.773,25.386 109.206,21.83 118.534,21.83 C128.124,21.83 135.789,25.473 141.517,32.746 C145.583,37.883 147.652,44.297 147.726,51.984 L97.095,51.984 C97.227,58.52 99.318,63.877 103.362,68.059 C107.399,72.242 112.384,74.325 118.322,74.325 C121.186,74.325 123.97,73.831 126.681,72.832 C129.391,71.833 131.694,70.515 133.604,68.86 C135.498,67.214 137.553,64.554 139.761,60.881 L139.761,60.881 Z" id="Fill-4"></path>
                <path d="M59.618,23.28 L67.014,23.28 L67.014,31.508 C69.215,28.258 71.547,25.838 73.995,24.235 C76.443,22.631 78.994,21.83 81.647,21.83 C83.651,21.83 85.786,22.471 88.06,23.746 L84.285,29.845 C82.769,29.189 81.501,28.869 80.466,28.869 C78.047,28.869 75.715,29.86 73.478,31.843 C71.241,33.824 69.536,36.899 68.355,41.067 C67.466,44.274 67.014,50.76 67.014,60.517 L67.014,79.551 L59.618,79.551 L59.618,23.28" id="Fill-2"></path>
                <path d="M8.514,10.914 L8.514,36.725 L21.39,36.886 C26.601,36.886 30.404,36.404 32.824,35.464 C35.229,34.517 37.13,32.986 38.508,30.866 C39.892,28.752 40.577,26.392 40.577,23.768 C40.577,21.225 39.892,18.893 38.508,16.773 C37.13,14.659 35.316,13.158 33.057,12.262 C30.798,11.366 27.096,10.914 21.959,10.914 L8.514,10.914 L8.514,10.914 Z M0.906,3.467 L16.063,3.467 C24.75,3.467 30.608,3.846 33.647,4.611 C37.99,5.682 41.539,7.875 44.301,11.205 C47.063,14.528 48.439,18.711 48.439,23.746 C48.439,28.812 47.092,32.994 44.41,36.288 C41.714,39.581 38.012,41.797 33.29,42.933 C29.836,43.764 23.395,44.172 13.943,44.172 L8.514,44.172 L8.514,79.551 L0.906,79.551 L0.906,3.467 L0.906,3.467 Z" id="Fill-1"></path>
            </g>
            <g id="Frog" transform="translate(0.000000, 2.000000)" sketch:type="MSShapeGroup">
                <path d="M55.5039506,79.9576271 C24.8443339,79.9576271 0,69.9052505 0,55.5411187 C0,40.0982935 24.8443339,18.6351109 55.5039506,18.6351109 C86.1487525,18.6351109 111,39.518697 111,55.5411187 C111,69.0911992 86.1487525,79.9576271 55.5039506,79.9576271 Z" id="Face" fill="#1A1919"></path>
                <g id="Eyes" transform="translate(2.005639, 0.000000)">
                    <g id="Left" transform="translate(0.162330, 0.000000)">
                        <path d="M39.0234375,18.637703 C39.0234375,28.9218249 30.3494977,37.2702219 19.6201172,37.2702219 C8.90584279,37.2702219 0.216796875,28.9218249 0.216796875,18.637703 C0.216796875,8.34943379 8.90584279,0 19.6201172,0 C30.3494977,0 39.0234375,8.34943379 39.0234375,18.637703" id="Socket" fill="#1A1919"></path>
                        <path d="M30.1347656,18.7460256 C30.1347656,24.300531 25.4317919,28.8194157 19.6201172,28.8194157 C13.8164475,28.8194157 9.10546875,24.300531 9.10546875,18.7460256 C9.10546875,13.1791792 13.8164475,8.66749345 19.6201172,8.66749345 C25.4317919,8.66749345 30.1347656,13.1791792 30.1347656,18.7460256" id="Eyeball" fill="#FFFFFF"></path>
                        <path d="M23.6308594,18.6340856 C23.6308594,20.7872878 21.7918311,22.535483 19.5117187,22.535483 C17.2386718,22.535483 15.3925781,20.7872878 15.3925781,18.6340856 C15.3925781,16.4696047 17.2386718,14.7347389 19.5117187,14.7347389 C21.7918311,14.7347389 23.6308594,16.4696047 23.6308594,18.6340856" id="Pupil" fill="#1A1919"></path>
                    </g>
                    <g id="Right" transform="translate(67.586158, 0.000000)">
                        <path d="M39.0234375,18.637703 C39.0234375,28.9218249 30.3494977,37.2702219 19.6201172,37.2702219 C8.90584279,37.2702219 0.216796875,28.9218249 0.216796875,18.637703 C0.216796875,8.34943379 8.90584279,0 19.6201172,0 C30.3494977,0 39.0234375,8.34943379 39.0234375,18.637703" id="Socket" fill="#1A1919"></path>
                        <path d="M30.1347656,18.7460256 C30.1347656,24.300531 25.4317919,28.8194157 19.6201172,28.8194157 C13.8164475,28.8194157 9.10546875,24.300531 9.10546875,18.7460256 C9.10546875,13.1791792 13.8164475,8.66749345 19.6201172,8.66749345 C25.4317919,8.66749345 30.1347656,13.1791792 30.1347656,18.7460256" id="Eyeball" fill="#FFFFFF"></path>
                        <path d="M23.6308594,18.6340856 C23.6308594,20.7872878 21.7918311,22.535483 19.5117187,22.535483 C17.2386718,22.535483 15.3925781,20.7872878 15.3925781,18.6340856 C15.3925781,16.4696047 17.2386718,14.7347389 19.5117187,14.7347389 C21.7918311,14.7347389 23.6308594,16.4696047 23.6308594,18.6340856" id="Pupil" fill="#1A1919"></path>
                    </g>
                </g>
                <g id="Nose" transform="translate(43.307898, 31.946418)" fill="#FFFFFF">
                    <path d="M24.3327271,1.95418134 C24.3327271,2.98629116 23.4567911,3.80699298 22.3820473,3.80699298 C21.305335,3.80699298 20.4303833,2.98629116 20.4303833,1.95418134 C20.4303833,0.951987744 21.305335,0.123308263 22.3820473,0.123308263 C23.4567911,0.123308263 24.3327271,0.951987744 24.3327271,1.95418134" id="Fill-28"></path>
                    <path d="M3.95382081,1.95418134 C3.95382081,2.98629116 3.07864836,3.80699298 2.00264894,3.80699298 C0.926649512,3.80699298 0.0514770618,2.98629116 0.0514770618,1.95418134 C0.0514770618,0.951987744 0.926649512,0.123308263 2.00264894,0.123308263 C3.07864836,0.123308263 3.95382081,0.951987744 3.95382081,1.95418134" id="Fill-29"></path>
                </g>
            </g>
        </g>
    </g>
</svg>