<?xml version="1.0" encoding="UTF-8" standalone="no"?>
<svg width="512px" height="512px" viewBox="0 0 512 512" version="1.1" xmlns="http://www.w3.org/2000/svg" xmlns:xlink="http://www.w3.org/1999/xlink" xmlns:sketch="http://www.bohemiancoding.com/sketch/ns">
    <!-- Generator: Sketch 3.3 (11970) - http://www.bohemiancoding.com/sketch -->
    <title>frog-dark-background</title>
    <desc>Created with Sketch.</desc>
    <defs></defs>
    <g id="Page-1" stroke="none" stroke-width="1" fill="none" fill-rule="evenodd" sketch:type="MSPage">
        <g id="Frog-(Dark-Background)" sketch:type="MSLayerGroup">
            <path d="M420.233867,204.247862 C476.323536,238.834298 512,287.067844 512,328.319172 C512,390.85204 397.370823,441 256.018223,441 C114.597288,441 0,394.608841 0,328.319172 C0,288.296366 36.141233,239.511275 92.8781146,204.42764 L92.8781194,204.42764 C95.3613483,204.804344 97.9070308,205 100.5,205 C119.593023,205 136.091782,194.420855 144.006132,179.070638 C177.837777,165.99263 215.845777,158 256.018223,158 C296.059584,158 333.956564,165.733598 367.710992,178.500133 C375.516227,194.158117 392.197963,205 411.5,205 C414.482185,205 417.401081,204.74191 420.233861,204.247863 Z M218,228.449377 C218,233.212507 213.963169,237 209,237 C204.036831,237 200,233.212507 200,228.449377 C200,223.82431 204.036831,220 209,220 C213.963169,220 218,223.82431 218,228.449377 Z M312,228.449377 C312,233.212507 307.959647,237 303.00227,237 C298.035813,237 294,233.212507 294,228.449377 C294,223.82431 298.035813,220 303.00227,220 C307.959647,220 312,223.82431 312,228.449377 Z" id="Face" fill="#FFFFFF" sketch:type="MSShapeGroup"></path>
            <g id="Eyes" transform="translate(9.251234, 72.000000)" fill="#FFFFFF" sketch:type="MSShapeGroup">
                <g id="Left" transform="translate(0.748766, 0.000000)">
                    <path d="M180,86.0119621 C180,133.472612 139.990476,172 90.5,172 C41.0792028,172 1,133.472612 1,86.0119621 C1,38.5321724 41.0792028,0 90.5,0 C139.990476,0 180,38.5321724 180,86.0119621 Z M139,86.5118653 C139,112.145598 117.307004,133 90.5,133 C63.7299201,133 42,112.145598 42,86.5118653 C42,60.8211789 63.7299201,40 90.5,40 C117.307004,40 139,60.8211789 139,86.5118653 Z" id="Socket"></path>
                    <path d="M109,85.9952681 C109,95.9321767 100.517275,104 90,104 C79.5153149,104 71,95.9321767 71,85.9952681 C71,76.0063091 79.5153149,68 90,68 C100.517275,68 109,76.0063091 109,85.9952681" id="Pupil"></path>
                </g>
                <g id="Right" transform="translate(311.748766, 0.000000)">
                    <path d="M180,86.0119621 C180,133.472612 139.990476,172 90.5,172 C41.0792028,172 1,133.472612 1,86.0119621 C1,38.5321724 41.0792028,0 90.5,0 C139.990476,0 180,38.5321724 180,86.0119621 Z M139,86.5118653 C139,112.145598 117.307004,133 90.5,133 C63.7299201,133 42,112.145598 42,86.5118653 C42,60.8211789 63.7299201,40 90.5,40 C117.307004,40 139,60.8211789 139,86.5118653 Z" id="Socket"></path>
                    <path d="M109,85.9952681 C109,95.9321767 100.517275,104 90,104 C79.5153149,104 71,95.9321767 71,85.9952681 C71,76.0063091 79.5153149,68 90,68 C100.517275,68 109,76.0063091 109,85.9952681" id="Pupil"></path>
                </g>
            </g>
            <g id="Nose" transform="translate(293.762556, 219.430939)"></g>
        </g>
    </g>
</svg>